<?xml version="1.0" standalone="no"?>
<!DOCTYPE svg PUBLIC "-//W3C//DTD SVG 20010904//EN"
 "http://www.w3.org/TR/2001/REC-SVG-20010904/DTD/svg10.dtd">
<svg version="1.0" xmlns="http://www.w3.org/2000/svg"
 width="400.000000pt" height="400.000000pt" viewBox="0 0 400.000000 400.000000"
 preserveAspectRatio="xMidYMid meet">
<metadata>
Created by potrace 1.11, written by Peter Selinger 2001-2013
</metadata>
<g transform="translate(0.000000,400.000000) scale(0.100000,-0.100000)"
fill="#000000" stroke="none">
<path d="M1824 3710 c-3 -2 -35 -5 -72 -6 -83 -3 -403 -43 -417 -53 -5 -4 -20
-6 -32 -5 -13 0 -23 -2 -23 -6 0 -4 -12 -8 -27 -8 -26 -2 -68 -9 -68 -12 0 0
-40 -12 -90 -26 -100 -27 -104 -28 -125 -37 -8 -3 -44 -16 -80 -27 -61 -20
-224 -88 -262 -110 -10 -6 -25 -10 -33 -10 -8 0 -15 -4 -15 -8 0 -4 -27 -20
-60 -35 -33 -16 -60 -32 -60 -37 0 -5 -7 -7 -15 -4 -8 4 -15 1 -15 -5 0 -6
-17 -19 -38 -30 -43 -22 -98 -71 -97 -86 4 -47 18 -68 63 -87 26 -12 63 -22
82 -23 35 -1 142 44 155 65 3 6 11 8 16 5 5 -4 9 -2 9 2 0 5 21 20 47 33 27
14 64 34 83 46 19 11 62 31 95 44 33 13 63 28 66 33 4 5 11 7 17 3 6 -3 13 -2
17 3 11 18 316 109 454 136 9 2 18 4 21 5 3 1 9 2 14 1 5 -1 16 1 25 5 9 4 30
8 46 9 17 1 37 5 45 8 8 3 29 5 45 4 17 -2 36 2 44 8 17 12 667 14 696 1 11
-4 38 -9 60 -11 61 -5 120 -13 120 -15 0 -1 9 -4 20 -5 11 -2 31 -5 45 -8 14
-3 61 -13 105 -22 44 -10 82 -20 85 -24 5 -6 34 -12 63 -12 9 0 17 -4 17 -10
0 -5 3 -8 8 -7 11 3 137 -39 172 -57 16 -8 33 -16 37 -16 31 -4 263 -118 294
-145 9 -8 19 -11 22 -7 4 3 7 2 7 -3 0 -9 63 -45 105 -60 29 -10 85 -12 91 -2
3 4 14 8 24 8 10 0 32 12 49 26 56 47 36 95 -64 154 -22 13 -42 27 -45 30 -3
3 -36 22 -75 40 -38 19 -72 38 -75 41 -3 3 -41 21 -85 39 -44 19 -83 39 -87
45 -4 5 -8 6 -8 1 0 -5 -7 -3 -15 4 -8 7 -15 9 -15 5 0 -4 -6 -3 -12 3 -19 15
-280 100 -332 107 -25 4 -46 10 -46 14 0 3 -10 6 -22 7 -22 1 -70 10 -75 15
-2 1 -12 3 -23 4 -11 1 -23 4 -27 5 -5 2 -12 4 -18 5 -5 1 -26 5 -45 9 -56 11
-258 35 -345 41 -116 7 -416 11 -421 5z"/>
<path d="M1745 3359 c-55 -4 -116 -11 -135 -15 -19 -4 -45 -7 -57 -6 -13 0
-23 -3 -23 -7 0 -5 -12 -9 -27 -10 -61 -3 -83 -6 -83 -13 0 -5 -8 -8 -18 -8
-11 0 -54 -9 -98 -21 -43 -11 -86 -22 -94 -24 -8 -2 -16 -4 -17 -5 -2 -2 -6
-3 -10 -5 -5 -1 -19 -6 -33 -12 -14 -5 -49 -18 -77 -28 -29 -11 -53 -23 -53
-28 0 -4 -4 -6 -9 -3 -8 5 -189 -79 -201 -93 -3 -3 -22 -15 -42 -26 -21 -11
-38 -23 -38 -28 0 -4 -4 -6 -9 -3 -9 6 -45 -31 -54 -56 -9 -26 12 -76 34 -83
10 -4 19 -10 19 -14 0 -3 8 -8 18 -8 85 -9 109 -9 120 0 7 5 15 7 18 4 4 -3
21 5 39 18 17 14 35 25 38 25 3 0 25 13 49 28 24 16 59 35 78 42 19 7 49 21
66 31 17 10 34 16 37 12 4 -3 7 -2 7 3 0 6 29 18 65 29 36 10 65 22 65 26 0 4
9 6 20 4 11 -2 22 0 25 5 3 4 13 7 23 6 9 -2 20 1 23 6 4 6 20 11 36 12 16 2
34 5 39 8 8 5 129 27 179 33 11 1 20 4 20 5 0 6 112 10 313 13 116 2 212 0
212 -3 0 -4 20 -6 45 -5 25 1 45 -2 45 -6 0 -4 15 -7 33 -7 40 -1 240 -41 247
-50 3 -4 14 -8 25 -10 45 -7 51 -9 70 -19 11 -6 32 -13 47 -17 14 -3 48 -16
75 -28 26 -12 50 -22 53 -23 30 -10 109 -50 123 -62 9 -9 17 -12 17 -8 0 4 8
1 18 -7 43 -39 118 -72 170 -73 28 -1 52 2 52 6 0 5 9 9 21 9 12 0 34 14 50
31 29 31 39 69 17 69 -6 0 -9 3 -5 6 13 13 -98 89 -218 148 -22 11 -43 25 -47
30 -4 6 -8 8 -8 4 0 -4 -26 5 -57 18 -32 14 -78 32 -103 40 -25 8 -54 19 -65
24 -36 16 -213 63 -280 74 -11 2 -20 5 -20 6 0 1 -11 4 -25 5 -14 1 -33 5 -42
10 -10 4 -25 4 -34 1 -9 -4 -22 -2 -28 3 -30 25 -430 37 -641 20z"/>
<path d="M2542 2828 c-7 -7 -12 -8 -12 -4 0 5 -8 2 -17 -5 -9 -8 -14 -9 -11
-4 8 13 -451 14 -471 1 -8 -5 -12 -5 -9 0 7 11 -431 12 -448 2 -6 -4 -14 -4
-18 -1 -10 10 -257 10 -263 1 -2 -5 -10 -5 -16 -1 -7 4 -93 8 -192 8 l-180 0
-37 -35 c-21 -19 -72 -66 -114 -105 -42 -38 -93 -85 -113 -104 -20 -18 -71
-65 -114 -105 -44 -39 -101 -92 -127 -117 -27 -26 -51 -45 -53 -42 -3 2 -9 -9
-15 -26 -6 -16 -8 -32 -5 -35 4 -3 1 -6 -7 -6 -10 0 -10 -3 0 -15 9 -11 10
-18 1 -28 -6 -8 -8 -17 -4 -21 11 -11 11 -71 -1 -78 -8 -6 -8 -8 0 -8 12 0 12
-29 0 -48 -4 -6 -3 -12 1 -12 12 0 14 -38 2 -45 -5 -4 -7 -11 -3 -16 3 -5 11
-6 17 -2 7 4 6 0 -2 -10 -7 -9 -10 -17 -6 -17 4 0 1 -8 -6 -17 -8 -10 -9 -14
-2 -10 13 8 12 -30 -2 -52 -5 -9 -4 -12 2 -8 7 4 10 -5 9 -23 0 -17 -5 -30
-11 -30 -7 0 -6 -3 0 -8 14 -9 14 -45 0 -54 -7 -5 -7 -8 1 -8 13 0 13 -50 0
-50 -8 0 -8 -3 -1 -8 14 -9 14 -45 0 -54 -6 -5 -6 -8 2 -8 11 0 10 -30 -2 -49
-3 -5 -1 -12 4 -16 13 -7 10 -45 -4 -45 -7 0 -7 -3 0 -8 14 -9 13 -95 0 -104
-7 -5 -6 -8 1 -8 14 0 13 -70 -1 -70 -6 0 -6 -3 1 -8 13 -9 13 -64 -1 -74 -6
-5 -6 -8 1 -8 14 0 13 -70 -1 -70 -5 0 -4 -4 2 -8 9 -6 10 -17 4 -39 -5 -17
-6 -34 -3 -38 11 -11 9 -75 -3 -75 -5 0 -4 -4 3 -9 14 -9 13 -32 -3 -43 -6 -5
-6 -8 2 -8 12 0 12 -17 0 -37 -4 -6 -3 -14 2 -17 10 -7 9 -25 -2 -42 -3 -6 -3
-14 0 -18 11 -11 12 -36 2 -36 -6 0 -7 -6 -2 -12 13 -22 13 -48 0 -48 -7 0 -8
-3 -2 -8 14 -10 15 -52 1 -52 -7 0 -8 -3 -1 -8 6 -4 11 -16 11 -27 0 -11 -5
-23 -11 -27 -7 -5 -6 -8 1 -8 12 0 13 -38 1 -57 -5 -7 -4 -13 0 -13 5 0 9 -20
9 -45 -1 -25 -5 -45 -11 -45 -7 0 -6 -3 0 -8 6 -4 11 -20 11 -37 0 -16 -5 -33
-11 -37 -7 -5 -6 -8 1 -8 6 0 11 -12 10 -27 -1 -25 2 -28 32 -28 17 0 32 -3
32 -8 0 -4 5 -5 11 -1 15 9 137 9 146 1 3 -4 12 -2 20 4 10 9 13 8 13 -2 0 -9
3 -10 8 -4 8 12 62 14 62 2 0 -5 5 -5 12 -1 18 11 68 10 68 -1 0 -7 3 -7 8 0
10 14 32 17 32 4 0 -5 5 -7 12 -3 16 10 108 11 108 1 0 -5 5 -5 12 -1 15 9
107 11 121 2 6 -4 17 -2 24 4 10 8 13 7 13 -3 0 -9 3 -10 8 -4 8 12 62 14 62
2 0 -5 5 -5 12 -1 18 11 68 10 68 -1 0 -7 3 -7 8 0 10 14 32 17 32 4 0 -5 5
-7 12 -3 16 10 108 11 108 1 0 -5 5 -5 12 -1 15 9 107 11 121 2 6 -4 17 -2 24
4 10 8 13 7 13 -3 0 -9 3 -10 8 -4 8 12 62 14 62 2 0 -5 5 -5 12 -1 18 11 68
10 68 -1 0 -7 3 -7 8 0 10 14 32 17 32 4 0 -5 5 -7 11 -3 15 9 193 9 207 0 6
-3 13 -2 17 4 4 7 12 7 26 0 14 -8 19 -7 19 2 0 9 3 9 10 -2 5 -8 10 -10 10
-4 0 6 13 11 30 10 16 -1 30 -5 30 -9 0 -5 5 -5 12 -1 16 10 108 11 108 1 0
-5 5 -5 12 -1 14 9 192 9 206 0 6 -3 14 -2 17 4 5 8 11 8 20 0 10 -8 15 -8 20
1 6 8 10 7 16 -2 5 -9 9 -10 9 -2 0 11 66 10 78 -1 3 -3 11 -1 18 5 8 7 14 7
19 -1 5 -8 11 -8 21 1 11 9 14 8 14 -2 0 -9 3 -10 8 -4 8 12 62 14 62 2 0 -5
5 -5 11 -1 16 9 109 11 109 1 0 -5 5 -5 12 -1 14 9 203 9 217 -1 6 -3 11 -1
11 6 0 9 3 9 14 0 11 -9 16 -9 21 0 6 8 10 7 16 -2 5 -8 9 -9 9 -3 0 6 13 11
30 10 16 -1 30 -5 30 -9 0 -5 5 -5 12 -1 18 11 68 10 68 -1 0 -7 3 -7 8 0 10
14 32 17 32 4 0 -5 5 -7 12 -3 14 9 192 9 206 0 6 -3 14 -2 17 4 5 8 11 8 20
0 10 -8 15 -8 20 1 6 8 10 7 16 -2 5 -8 9 -9 9 -3 0 7 20 9 56 7 46 -2 55 0
51 11 -3 8 -1 17 6 20 9 3 9 5 0 5 -9 1 -10 8 -2 28 7 19 6 28 -2 34 -7 4 -8
12 -3 20 12 20 14 39 3 39 -6 0 -5 8 1 20 7 13 7 20 1 20 -7 0 -7 9 -2 22 4
13 5 35 0 50 -4 16 -4 28 0 28 3 0 7 9 7 20 0 11 -5 20 -11 20 -5 0 -3 5 5 10
10 6 11 10 3 10 -9 0 -10 7 -4 23 5 13 5 30 1 37 -5 8 -6 19 -2 25 11 16 11
35 1 35 -6 0 -5 8 1 20 7 13 7 20 1 20 -7 0 -7 9 -2 22 4 13 5 35 0 50 -4 16
-4 28 0 28 3 0 7 9 7 20 0 11 -5 20 -11 20 -5 0 -3 5 5 10 10 6 11 10 3 10 -9
0 -10 7 -4 23 5 13 5 30 1 37 -5 8 -6 19 -2 25 11 17 11 35 1 41 -6 3 -5 11 2
20 8 10 8 14 1 14 -8 0 -8 8 -3 22 4 13 5 35 0 50 -4 16 -4 28 0 28 3 0 7 9 7
20 0 11 -5 20 -11 20 -5 0 -3 5 5 10 10 6 11 10 3 10 -9 0 -10 7 -4 23 5 13 5
30 1 37 -5 8 -6 19 -2 25 10 16 11 35 2 35 -5 0 -5 14 0 30 6 20 5 30 -2 30
-6 0 -6 6 2 15 10 12 10 15 0 15 -10 0 -10 3 0 15 8 10 9 15 2 15 -8 0 -8 8
-3 22 4 13 5 35 0 50 -5 18 -3 29 4 32 9 5 9 7 0 12 -8 4 -9 13 -3 30 7 16 6
24 -1 24 -8 0 -8 4 -1 13 5 6 6 21 2 32 -4 11 -3 28 2 38 6 11 5 17 -2 17 -6
0 -8 5 -4 12 10 16 12 78 2 78 -7 0 -3 34 7 50 3 6 1 10 -5 10 -8 0 -7 6 1 21
9 17 8 20 -3 13 -11 -6 -11 -5 1 9 8 11 9 17 3 17 -8 0 -8 8 -3 22 4 13 5 35
0 50 -4 16 -4 28 0 28 3 0 7 9 7 20 0 11 -4 20 -9 20 -5 0 -4 7 3 15 10 12 10
15 0 15 -9 0 -9 4 -2 13 5 6 6 21 2 32 -4 11 -3 28 2 39 7 13 6 21 -2 26 -6 4
-11 11 -9 15 3 9 -23 45 -33 45 -5 0 -23 15 -41 33 -17 18 -57 55 -87 82 -30
27 -54 54 -52 60 2 5 0 7 -4 3 -4 -4 -22 8 -41 27 -19 19 -36 35 -38 35 -3 0
-24 20 -49 44 -24 25 -47 42 -50 39 -3 -4 -6 1 -6 10 0 10 -4 17 -9 17 -5 0
-27 17 -49 38 -69 65 -112 101 -112 92 0 -4 -32 -7 -70 -5 -39 1 -73 -2 -76
-7 -3 -4 -11 -5 -17 -1 -19 11 -71 11 -79 -1 -6 -8 -8 -8 -8 0 0 7 -57 10
-179 9 -99 -1 -178 2 -175 7 8 12 0 10 -14 -4z"/>
</g>
</svg>
